<?xml version="1.0" standalone="no"?><svg xmlns="http://www.w3.org/2000/svg" viewBox="0 0 1440 320"><path fill="#273036" fill-opacity="1" d="M0,96L14.1,101.3C28.2,107,56,117,85,133.3C112.9,149,141,171,169,165.3C197.6,160,226,128,254,122.7C282.4,117,311,139,339,122.7C367.1,107,395,53,424,26.7C451.8,0,480,0,508,37.3C536.5,75,565,149,593,165.3C621.2,181,649,139,678,144C705.9,149,734,203,762,229.3C790.6,256,819,256,847,250.7C875.3,245,904,235,932,218.7C960,203,988,181,1016,197.3C1044.7,213,1073,267,1101,272C1129.4,277,1158,235,1186,186.7C1214.1,139,1242,85,1271,101.3C1298.8,117,1327,203,1355,250.7C1383.5,299,1412,309,1426,314.7L1440,320L1440,320L1425.9,320C1411.8,320,1384,320,1355,320C1327.1,320,1299,320,1271,320C1242.4,320,1214,320,1186,320C1157.6,320,1129,320,1101,320C1072.9,320,1045,320,1016,320C988.2,320,960,320,932,320C903.5,320,875,320,847,320C818.8,320,791,320,762,320C734.1,320,706,320,678,320C649.4,320,621,320,593,320C564.7,320,536,320,508,320C480,320,452,320,424,320C395.3,320,367,320,339,320C310.6,320,282,320,254,320C225.9,320,198,320,169,320C141.2,320,113,320,85,320C56.5,320,28,320,14,320L0,320Z"></path></svg>